<mxfile host="Electron" agent="Mozilla/5.0 (Windows NT 10.0; Win64; x64) AppleWebKit/537.36 (KHTML, like Gecko) draw.io/26.2.15 Chrome/134.0.6998.205 Electron/35.2.1 Safari/537.36" version="26.2.15">
  <diagram name="Page-1" id="90a13364-a465-7bf4-72fc-28e22215d7a0">
    <mxGraphModel dx="1426" dy="849" grid="1" gridSize="10" guides="1" tooltips="1" connect="1" arrows="1" fold="1" page="1" pageScale="1.5" pageWidth="1169" pageHeight="826" background="none" math="0" shadow="0">
      <root>
        <mxCell id="0" style=";html=1;" />
        <mxCell id="1" style=";html=1;" parent="0" />
        <mxCell id="DUjhv8gZkma0vR6sMJoY-136" value="" style="whiteSpace=wrap;html=1;shadow=1;fontSize=18;fillColor=default;strokeColor=#000000;opacity=30;" parent="1" vertex="1">
          <mxGeometry x="550" y="370" width="630" height="500" as="geometry" />
        </mxCell>
        <mxCell id="3a17f1ce550125da-2" value="" style="whiteSpace=wrap;html=1;shadow=1;fontSize=18;fillColor=none;strokeColor=#000000;" parent="1" vertex="1">
          <mxGeometry x="550" y="370" width="630" height="500" as="geometry" />
        </mxCell>
        <mxCell id="DUjhv8gZkma0vR6sMJoY-85" value="&lt;div style=&quot;line-height: 90%;&quot;&gt;&lt;b&gt;&lt;font&gt;Button&lt;br&gt;&lt;/font&gt;&lt;/b&gt;&lt;div&gt;&lt;b&gt;&lt;font&gt;Controller&lt;/font&gt;&lt;/b&gt;&lt;/div&gt;&lt;div&gt;&lt;b&gt;&lt;font style=&quot;line-height: 80%;&quot;&gt;&lt;br&gt;&lt;/font&gt;&lt;/b&gt;&lt;/div&gt;&lt;div&gt;&lt;b&gt;&lt;font style=&quot;line-height: 80%;&quot;&gt;&lt;br&gt;&lt;/font&gt;&lt;/b&gt;&lt;/div&gt;&lt;div&gt;&lt;b&gt;&lt;font style=&quot;font-size: 16px; line-height: 80%;&quot;&gt;&lt;br&gt;&lt;/font&gt;&lt;/b&gt;&lt;/div&gt;&lt;/div&gt;" style="whiteSpace=wrap;html=1;shadow=1;fontSize=18;fillColor=#f5f5f5;strokeColor=#666666;" parent="1" vertex="1">
          <mxGeometry x="580" y="440" width="100" height="320" as="geometry" />
        </mxCell>
        <mxCell id="DUjhv8gZkma0vR6sMJoY-34" value="CLK" style="text;html=1;align=right;verticalAlign=middle;whiteSpace=wrap;rounded=0;" parent="1" vertex="1">
          <mxGeometry x="630" y="420" width="40" height="20" as="geometry" />
        </mxCell>
        <mxCell id="3a17f1ce550125da-14" style="edgeStyle=elbowEdgeStyle;rounded=0;html=1;startArrow=none;startFill=0;jettySize=auto;orthogonalLoop=1;fontSize=18;elbow=vertical;entryX=0;entryY=0.5;entryDx=0;entryDy=0;exitX=1;exitY=0.18;exitDx=0;exitDy=0;exitPerimeter=0;" parent="1" source="3a17f1ce550125da-2" target="3a17f1ce550125da-5" edge="1">
          <mxGeometry relative="1" as="geometry">
            <mxPoint x="1183" y="460" as="sourcePoint" />
            <mxPoint x="990" y="470" as="targetPoint" />
            <Array as="points" />
          </mxGeometry>
        </mxCell>
        <mxCell id="3a17f1ce550125da-5" value="&lt;b&gt;UART TX&lt;/b&gt;&lt;div&gt;(FTDI VCP)&lt;/div&gt;" style="whiteSpace=wrap;html=1;shadow=1;fontSize=18;fillColor=#f5f5f5;strokeColor=#666666;" parent="1" vertex="1">
          <mxGeometry x="1280" y="430" width="120" height="60" as="geometry" />
        </mxCell>
        <mxCell id="3a17f1ce550125da-6" value="&lt;b&gt;LED&lt;/b&gt;s [0] - [7]" style="whiteSpace=wrap;html=1;shadow=1;fontSize=18;fillColor=#f5f5f5;strokeColor=#666666;" parent="1" vertex="1">
          <mxGeometry x="1280" y="560" width="120" height="60" as="geometry" />
        </mxCell>
        <mxCell id="3a17f1ce550125da-8" value="Button Up&lt;div&gt;&lt;b&gt;BTNU(F15)&lt;/b&gt;&lt;/div&gt;" style="whiteSpace=wrap;html=1;shadow=1;fontSize=16;fillColor=#f5f5f5;strokeColor=#666666;" parent="1" vertex="1">
          <mxGeometry x="390" y="430" width="120" height="40" as="geometry" />
        </mxCell>
        <mxCell id="3a17f1ce550125da-9" value="&lt;div style=&quot;line-height: 90%;&quot;&gt;Reset button&lt;div&gt;&lt;b&gt;CPU_RESET(G4)&lt;/b&gt;&lt;/div&gt;&lt;/div&gt;" style="whiteSpace=wrap;html=1;shadow=1;fontSize=18;fillColor=#f5f5f5;strokeColor=#666666;" parent="1" vertex="1">
          <mxGeometry x="350" y="770" width="160" height="40" as="geometry" />
        </mxCell>
        <mxCell id="DUjhv8gZkma0vR6sMJoY-1" value="Button Center&lt;div&gt;&lt;b&gt;BTNC(B22)&lt;/b&gt;&lt;/div&gt;" style="whiteSpace=wrap;html=1;shadow=1;fontSize=16;fillColor=#f5f5f5;strokeColor=#666666;" parent="1" vertex="1">
          <mxGeometry x="390" y="480" width="120" height="40" as="geometry" />
        </mxCell>
        <mxCell id="DUjhv8gZkma0vR6sMJoY-2" value="Button Down&lt;div&gt;&lt;b&gt;BTND(D22)&lt;/b&gt;&lt;/div&gt;" style="whiteSpace=wrap;html=1;shadow=1;fontSize=16;fillColor=#f5f5f5;strokeColor=#666666;" parent="1" vertex="1">
          <mxGeometry x="390" y="530" width="120" height="40" as="geometry" />
        </mxCell>
        <mxCell id="DUjhv8gZkma0vR6sMJoY-3" value="Button Left&lt;div&gt;&lt;b&gt;BTNL(C22)&lt;/b&gt;&lt;/div&gt;" style="whiteSpace=wrap;html=1;shadow=1;fontSize=16;fillColor=#f5f5f5;strokeColor=#666666;" parent="1" vertex="1">
          <mxGeometry x="390" y="580" width="120" height="40" as="geometry" />
        </mxCell>
        <mxCell id="DUjhv8gZkma0vR6sMJoY-4" value="" style="endArrow=classic;html=1;rounded=0;exitX=1;exitY=0.5;exitDx=0;exitDy=0;" parent="1" source="3a17f1ce550125da-8" edge="1">
          <mxGeometry width="50" height="50" relative="1" as="geometry">
            <mxPoint x="560" y="500" as="sourcePoint" />
            <mxPoint x="550" y="450" as="targetPoint" />
            <Array as="points">
              <mxPoint x="530" y="450" />
            </Array>
          </mxGeometry>
        </mxCell>
        <mxCell id="DUjhv8gZkma0vR6sMJoY-6" value="" style="endArrow=classic;html=1;rounded=0;exitX=1;exitY=0.5;exitDx=0;exitDy=0;entryX=0;entryY=0.25;entryDx=0;entryDy=0;" parent="1" source="DUjhv8gZkma0vR6sMJoY-1" edge="1">
          <mxGeometry width="50" height="50" relative="1" as="geometry">
            <mxPoint x="510" y="510" as="sourcePoint" />
            <mxPoint x="550" y="500" as="targetPoint" />
          </mxGeometry>
        </mxCell>
        <mxCell id="DUjhv8gZkma0vR6sMJoY-7" value="" style="endArrow=classic;html=1;rounded=0;exitX=1;exitY=0.5;exitDx=0;exitDy=0;entryX=0;entryY=0.429;entryDx=0;entryDy=0;entryPerimeter=0;edgeStyle=orthogonalEdgeStyle;" parent="1" source="DUjhv8gZkma0vR6sMJoY-2" edge="1">
          <mxGeometry width="50" height="50" relative="1" as="geometry">
            <mxPoint x="510" y="569.8" as="sourcePoint" />
            <mxPoint x="550" y="550" as="targetPoint" />
          </mxGeometry>
        </mxCell>
        <mxCell id="DUjhv8gZkma0vR6sMJoY-8" value="" style="endArrow=classic;html=1;rounded=0;exitX=1;exitY=0.5;exitDx=0;exitDy=0;entryX=0;entryY=0.607;entryDx=0;entryDy=0;entryPerimeter=0;" parent="1" source="DUjhv8gZkma0vR6sMJoY-3" edge="1">
          <mxGeometry width="50" height="50" relative="1" as="geometry">
            <mxPoint x="510" y="630" as="sourcePoint" />
            <mxPoint x="550" y="600" as="targetPoint" />
          </mxGeometry>
        </mxCell>
        <mxCell id="DUjhv8gZkma0vR6sMJoY-9" value="" style="endArrow=classic;html=1;rounded=0;exitX=1;exitY=0.5;exitDx=0;exitDy=0;entryX=0;entryY=0.946;entryDx=0;entryDy=0;entryPerimeter=0;" parent="1" source="3a17f1ce550125da-9" edge="1">
          <mxGeometry width="50" height="50" relative="1" as="geometry">
            <mxPoint x="510" y="785" as="sourcePoint" />
            <mxPoint x="550" y="789.8799999999999" as="targetPoint" />
          </mxGeometry>
        </mxCell>
        <mxCell id="DUjhv8gZkma0vR6sMJoY-10" value="Button Right&lt;div&gt;&lt;b&gt;BTNR(D14)&lt;/b&gt;&lt;/div&gt;" style="whiteSpace=wrap;html=1;shadow=1;fontSize=16;fillColor=#f5f5f5;strokeColor=#666666;" parent="1" vertex="1">
          <mxGeometry x="390" y="630" width="120" height="40" as="geometry" />
        </mxCell>
        <mxCell id="DUjhv8gZkma0vR6sMJoY-11" style="edgeStyle=orthogonalEdgeStyle;rounded=0;orthogonalLoop=1;jettySize=auto;html=1;entryX=0;entryY=0.782;entryDx=0;entryDy=0;entryPerimeter=0;exitX=1;exitY=0.5;exitDx=0;exitDy=0;" parent="1" source="DUjhv8gZkma0vR6sMJoY-10" edge="1">
          <mxGeometry relative="1" as="geometry">
            <mxPoint x="550" y="650" as="targetPoint" />
          </mxGeometry>
        </mxCell>
        <mxCell id="DUjhv8gZkma0vR6sMJoY-12" value="&lt;b&gt;&lt;font style=&quot;font-size: 22px;&quot;&gt;46F5SP_SoC&lt;/font&gt;&lt;/b&gt;" style="text;html=1;align=center;verticalAlign=top;whiteSpace=wrap;rounded=0;labelPosition=center;verticalLabelPosition=middle;fontSize=18;" parent="1" vertex="1">
          <mxGeometry x="550" y="370" width="150" height="40" as="geometry" />
        </mxCell>
        <mxCell id="DUjhv8gZkma0vR6sMJoY-16" value="" style="endArrow=classic;html=1;rounded=0;edgeStyle=orthogonalEdgeStyle;dashed=1;" parent="1" edge="1">
          <mxGeometry width="50" height="50" relative="1" as="geometry">
            <mxPoint x="550" y="450" as="sourcePoint" />
            <mxPoint x="580" y="450" as="targetPoint" />
            <Array as="points">
              <mxPoint x="560" y="450" />
            </Array>
          </mxGeometry>
        </mxCell>
        <mxCell id="DUjhv8gZkma0vR6sMJoY-22" value="" style="endArrow=classic;html=1;rounded=0;edgeStyle=orthogonalEdgeStyle;entryX=0.083;entryY=0.214;entryDx=0;entryDy=0;entryPerimeter=0;dashed=1;" parent="1" edge="1">
          <mxGeometry width="50" height="50" relative="1" as="geometry">
            <mxPoint x="550" y="500" as="sourcePoint" />
            <mxPoint x="580" y="500" as="targetPoint" />
            <Array as="points">
              <mxPoint x="560" y="500" />
            </Array>
          </mxGeometry>
        </mxCell>
        <mxCell id="DUjhv8gZkma0vR6sMJoY-23" value="" style="endArrow=classic;html=1;rounded=0;edgeStyle=orthogonalEdgeStyle;entryX=0.083;entryY=0.214;entryDx=0;entryDy=0;entryPerimeter=0;dashed=1;" parent="1" edge="1">
          <mxGeometry width="50" height="50" relative="1" as="geometry">
            <mxPoint x="550" y="550" as="sourcePoint" />
            <mxPoint x="580" y="550" as="targetPoint" />
            <Array as="points">
              <mxPoint x="560" y="550" />
            </Array>
          </mxGeometry>
        </mxCell>
        <mxCell id="DUjhv8gZkma0vR6sMJoY-24" value="" style="endArrow=classic;html=1;rounded=0;edgeStyle=orthogonalEdgeStyle;entryX=0.083;entryY=0.214;entryDx=0;entryDy=0;entryPerimeter=0;dashed=1;" parent="1" edge="1">
          <mxGeometry width="50" height="50" relative="1" as="geometry">
            <mxPoint x="550" y="600" as="sourcePoint" />
            <mxPoint x="580" y="600" as="targetPoint" />
            <Array as="points">
              <mxPoint x="560" y="600" />
            </Array>
          </mxGeometry>
        </mxCell>
        <mxCell id="DUjhv8gZkma0vR6sMJoY-25" value="" style="endArrow=classic;html=1;rounded=0;edgeStyle=orthogonalEdgeStyle;entryX=0.083;entryY=0.214;entryDx=0;entryDy=0;entryPerimeter=0;dashed=1;" parent="1" edge="1">
          <mxGeometry width="50" height="50" relative="1" as="geometry">
            <mxPoint x="550" y="650" as="sourcePoint" />
            <mxPoint x="580" y="650" as="targetPoint" />
            <Array as="points">
              <mxPoint x="560" y="650" />
            </Array>
          </mxGeometry>
        </mxCell>
        <mxCell id="DUjhv8gZkma0vR6sMJoY-31" value="" style="group" parent="1" vertex="1" connectable="0">
          <mxGeometry x="690" y="420" width="180" height="140" as="geometry" />
        </mxCell>
        <mxCell id="DUjhv8gZkma0vR6sMJoY-13" value="&lt;div style=&quot;line-height: 100%;&quot;&gt;&lt;b&gt;RV32I46F_5SP&lt;/b&gt;&lt;div&gt;&lt;/div&gt;&lt;/div&gt;&lt;div style=&quot;line-height: 100%;&quot;&gt;&lt;b&gt;&lt;br&gt;&lt;/b&gt;&lt;/div&gt;" style="whiteSpace=wrap;html=1;shadow=1;fontSize=18;fillColor=#dae8fc;strokeColor=#6c8ebf;" parent="DUjhv8gZkma0vR6sMJoY-31" vertex="1">
          <mxGeometry x="20" width="160" height="140" as="geometry" />
        </mxCell>
        <mxCell id="DUjhv8gZkma0vR6sMJoY-26" value="" style="triangle;whiteSpace=wrap;html=1;fillColor=#F5F5F5;fontColor=#333333;strokeColor=#000000;rotation=90;" parent="DUjhv8gZkma0vR6sMJoY-31" vertex="1">
          <mxGeometry x="35" y="-5" width="10" height="20" as="geometry" />
        </mxCell>
        <mxCell id="DUjhv8gZkma0vR6sMJoY-27" value="" style="triangle;whiteSpace=wrap;html=1;fillColor=#f8cecc;strokeColor=#b85450;rotation=90;" parent="DUjhv8gZkma0vR6sMJoY-31" vertex="1">
          <mxGeometry x="65" y="-5" width="10" height="20" as="geometry" />
        </mxCell>
        <mxCell id="DUjhv8gZkma0vR6sMJoY-28" value="CLK" style="text;html=1;align=center;verticalAlign=middle;whiteSpace=wrap;rounded=0;" parent="DUjhv8gZkma0vR6sMJoY-31" vertex="1">
          <mxGeometry x="15" y="5" width="40" height="20" as="geometry" />
        </mxCell>
        <mxCell id="DUjhv8gZkma0vR6sMJoY-29" value="&lt;div style=&quot;line-height: 80%;&quot;&gt;CLK&lt;br&gt;Enable&lt;/div&gt;" style="text;html=1;align=center;verticalAlign=middle;whiteSpace=wrap;rounded=0;" parent="DUjhv8gZkma0vR6sMJoY-31" vertex="1">
          <mxGeometry x="50" y="10" width="40" height="20" as="geometry" />
        </mxCell>
        <mxCell id="DUjhv8gZkma0vR6sMJoY-126" style="edgeStyle=orthogonalEdgeStyle;rounded=0;orthogonalLoop=1;jettySize=auto;html=1;" parent="DUjhv8gZkma0vR6sMJoY-31" source="DUjhv8gZkma0vR6sMJoY-36" edge="1">
          <mxGeometry relative="1" as="geometry">
            <mxPoint x="200" y="10" as="targetPoint" />
          </mxGeometry>
        </mxCell>
        <mxCell id="DUjhv8gZkma0vR6sMJoY-36" value="dbg_pc" style="text;html=1;align=right;verticalAlign=middle;whiteSpace=wrap;rounded=0;" parent="DUjhv8gZkma0vR6sMJoY-31" vertex="1">
          <mxGeometry x="120" y="5" width="60" height="10" as="geometry" />
        </mxCell>
        <mxCell id="DUjhv8gZkma0vR6sMJoY-127" style="edgeStyle=orthogonalEdgeStyle;rounded=0;orthogonalLoop=1;jettySize=auto;html=1;" parent="DUjhv8gZkma0vR6sMJoY-31" source="DUjhv8gZkma0vR6sMJoY-38" edge="1">
          <mxGeometry relative="1" as="geometry">
            <mxPoint x="200" y="30" as="targetPoint" />
          </mxGeometry>
        </mxCell>
        <mxCell id="DUjhv8gZkma0vR6sMJoY-38" value="dbg_reg_addr" style="text;html=1;align=right;verticalAlign=middle;whiteSpace=wrap;rounded=0;" parent="DUjhv8gZkma0vR6sMJoY-31" vertex="1">
          <mxGeometry x="90" y="25" width="90" height="10" as="geometry" />
        </mxCell>
        <mxCell id="DUjhv8gZkma0vR6sMJoY-128" style="edgeStyle=orthogonalEdgeStyle;rounded=0;orthogonalLoop=1;jettySize=auto;html=1;" parent="DUjhv8gZkma0vR6sMJoY-31" source="DUjhv8gZkma0vR6sMJoY-39" edge="1">
          <mxGeometry relative="1" as="geometry">
            <mxPoint x="200" y="40" as="targetPoint" />
          </mxGeometry>
        </mxCell>
        <mxCell id="DUjhv8gZkma0vR6sMJoY-39" value="dbg_reg_data" style="text;html=1;align=right;verticalAlign=middle;whiteSpace=wrap;rounded=0;" parent="DUjhv8gZkma0vR6sMJoY-31" vertex="1">
          <mxGeometry x="90" y="35" width="90" height="10" as="geometry" />
        </mxCell>
        <mxCell id="DUjhv8gZkma0vR6sMJoY-41" value="dbg_mcycle" style="text;html=1;align=right;verticalAlign=middle;whiteSpace=wrap;rounded=0;" parent="DUjhv8gZkma0vR6sMJoY-31" vertex="1">
          <mxGeometry x="90" y="115" width="90" height="10" as="geometry" />
        </mxCell>
        <mxCell id="DUjhv8gZkma0vR6sMJoY-42" value="dbg_minstret" style="text;html=1;align=right;verticalAlign=middle;whiteSpace=wrap;rounded=0;" parent="DUjhv8gZkma0vR6sMJoY-31" vertex="1">
          <mxGeometry x="90" y="120" width="90" height="20" as="geometry" />
        </mxCell>
        <mxCell id="DUjhv8gZkma0vR6sMJoY-129" style="edgeStyle=orthogonalEdgeStyle;rounded=0;orthogonalLoop=1;jettySize=auto;html=1;" parent="DUjhv8gZkma0vR6sMJoY-31" source="DUjhv8gZkma0vR6sMJoY-37" edge="1">
          <mxGeometry relative="1" as="geometry">
            <mxPoint x="200" y="100" as="targetPoint" />
          </mxGeometry>
        </mxCell>
        <mxCell id="DUjhv8gZkma0vR6sMJoY-37" value="dbg_instruction" style="text;html=1;align=right;verticalAlign=middle;whiteSpace=wrap;rounded=0;" parent="DUjhv8gZkma0vR6sMJoY-31" vertex="1">
          <mxGeometry x="80" y="95" width="100" height="10" as="geometry" />
        </mxCell>
        <mxCell id="DUjhv8gZkma0vR6sMJoY-40" value="dbg_ALU_result" style="text;html=1;align=right;verticalAlign=middle;whiteSpace=wrap;rounded=0;" parent="DUjhv8gZkma0vR6sMJoY-31" vertex="1">
          <mxGeometry x="80" y="75" width="100" height="20" as="geometry" />
        </mxCell>
        <mxCell id="DUjhv8gZkma0vR6sMJoY-33" value="" style="endArrow=classic;html=1;rounded=0;entryX=0;entryY=0.5;entryDx=0;entryDy=0;" parent="1" edge="1">
          <mxGeometry width="50" height="50" relative="1" as="geometry">
            <mxPoint x="640" y="420" as="sourcePoint" />
            <mxPoint x="640" y="440" as="targetPoint" />
          </mxGeometry>
        </mxCell>
        <mxCell id="DUjhv8gZkma0vR6sMJoY-44" value="" style="triangle;whiteSpace=wrap;html=1;fillColor=#F5F5F5;fontColor=#333333;strokeColor=#000000;rotation=90;" parent="1" vertex="1">
          <mxGeometry x="1050" y="670" width="10" height="20" as="geometry" />
        </mxCell>
        <mxCell id="DUjhv8gZkma0vR6sMJoY-45" value="RST" style="text;html=1;align=center;verticalAlign=middle;whiteSpace=wrap;rounded=0;" parent="1" vertex="1">
          <mxGeometry x="590" y="420" width="40" height="20" as="geometry" />
        </mxCell>
        <mxCell id="DUjhv8gZkma0vR6sMJoY-46" value="" style="endArrow=classic;html=1;rounded=0;entryX=0;entryY=0.5;entryDx=0;entryDy=0;" parent="1" edge="1">
          <mxGeometry width="50" height="50" relative="1" as="geometry">
            <mxPoint x="625" y="420" as="sourcePoint" />
            <mxPoint x="625" y="440" as="targetPoint" />
          </mxGeometry>
        </mxCell>
        <mxCell id="DUjhv8gZkma0vR6sMJoY-52" value="" style="endArrow=classic;html=1;rounded=0;entryX=0;entryY=0.5;entryDx=0;entryDy=0;" parent="1" edge="1">
          <mxGeometry width="50" height="50" relative="1" as="geometry">
            <mxPoint x="730" y="400" as="sourcePoint" />
            <mxPoint x="730" y="420" as="targetPoint" />
          </mxGeometry>
        </mxCell>
        <mxCell id="DUjhv8gZkma0vR6sMJoY-53" value="" style="endArrow=classic;html=1;rounded=0;entryX=0;entryY=0.5;entryDx=0;entryDy=0;" parent="1" edge="1">
          <mxGeometry width="50" height="50" relative="1" as="geometry">
            <mxPoint x="760" y="400" as="sourcePoint" />
            <mxPoint x="760" y="420" as="targetPoint" />
          </mxGeometry>
        </mxCell>
        <mxCell id="DUjhv8gZkma0vR6sMJoY-54" value="RST" style="text;html=1;align=center;verticalAlign=middle;whiteSpace=wrap;rounded=0;" parent="1" vertex="1">
          <mxGeometry x="780" y="400" width="40" height="20" as="geometry" />
        </mxCell>
        <mxCell id="DUjhv8gZkma0vR6sMJoY-55" value="" style="endArrow=classic;html=1;rounded=0;entryX=0;entryY=0.5;entryDx=0;entryDy=0;" parent="1" edge="1">
          <mxGeometry width="50" height="50" relative="1" as="geometry">
            <mxPoint x="780" y="400" as="sourcePoint" />
            <mxPoint x="780" y="420" as="targetPoint" />
          </mxGeometry>
        </mxCell>
        <mxCell id="DUjhv8gZkma0vR6sMJoY-56" value="" style="shape=flexArrow;endArrow=classic;html=1;rounded=0;entryX=0;entryY=0.5;entryDx=0;entryDy=0;fillColor=#f5f5f5;strokeColor=#000000;" parent="1" target="3a17f1ce550125da-6" edge="1">
          <mxGeometry width="50" height="50" relative="1" as="geometry">
            <mxPoint x="1180" y="590" as="sourcePoint" />
            <mxPoint x="1130" y="590" as="targetPoint" />
          </mxGeometry>
        </mxCell>
        <mxCell id="DUjhv8gZkma0vR6sMJoY-57" value="step_pulse" style="text;html=1;align=right;verticalAlign=middle;whiteSpace=wrap;rounded=0;" parent="1" vertex="1">
          <mxGeometry x="620" y="470" width="60" height="10" as="geometry" />
        </mxCell>
        <mxCell id="DUjhv8gZkma0vR6sMJoY-58" value="bench_start" style="text;html=1;align=right;verticalAlign=middle;whiteSpace=wrap;rounded=0;" parent="1" vertex="1">
          <mxGeometry x="620" y="690" width="60" height="20" as="geometry" />
        </mxCell>
        <mxCell id="DUjhv8gZkma0vR6sMJoY-59" value="pc_inst_trigger" style="text;html=1;align=right;verticalAlign=middle;whiteSpace=wrap;rounded=0;" parent="1" vertex="1">
          <mxGeometry x="600" y="740" width="80" height="20" as="geometry" />
        </mxCell>
        <mxCell id="DUjhv8gZkma0vR6sMJoY-60" value="reg_trigger" style="text;html=1;align=right;verticalAlign=middle;whiteSpace=wrap;rounded=0;" parent="1" vertex="1">
          <mxGeometry x="620" y="710" width="60" height="20" as="geometry" />
        </mxCell>
        <mxCell id="DUjhv8gZkma0vR6sMJoY-61" value="result_trigger" style="text;html=1;align=right;verticalAlign=middle;whiteSpace=wrap;rounded=0;" parent="1" vertex="1">
          <mxGeometry x="600" y="725" width="80" height="20" as="geometry" />
        </mxCell>
        <mxCell id="DUjhv8gZkma0vR6sMJoY-66" value="" style="endArrow=classic;html=1;rounded=0;exitX=1;exitY=0.5;exitDx=0;exitDy=0;dashed=1;" parent="1" source="DUjhv8gZkma0vR6sMJoY-64" edge="1">
          <mxGeometry width="50" height="50" relative="1" as="geometry">
            <mxPoint x="980" y="510" as="sourcePoint" />
            <mxPoint x="1180" y="460" as="targetPoint" />
          </mxGeometry>
        </mxCell>
        <mxCell id="DUjhv8gZkma0vR6sMJoY-68" value="btn_center" style="text;html=1;align=left;verticalAlign=middle;whiteSpace=wrap;rounded=0;" parent="1" vertex="1">
          <mxGeometry x="580" y="490" width="60" height="20" as="geometry" />
        </mxCell>
        <mxCell id="DUjhv8gZkma0vR6sMJoY-69" value="btn_up" style="text;html=1;align=left;verticalAlign=middle;whiteSpace=wrap;rounded=0;" parent="1" vertex="1">
          <mxGeometry x="580" y="440" width="60" height="20" as="geometry" />
        </mxCell>
        <mxCell id="DUjhv8gZkma0vR6sMJoY-70" value="btn_down" style="text;html=1;align=left;verticalAlign=middle;whiteSpace=wrap;rounded=0;" parent="1" vertex="1">
          <mxGeometry x="580" y="540" width="60" height="20" as="geometry" />
        </mxCell>
        <mxCell id="DUjhv8gZkma0vR6sMJoY-86" value="btn_left" style="text;html=1;align=left;verticalAlign=middle;whiteSpace=wrap;rounded=0;" parent="1" vertex="1">
          <mxGeometry x="580" y="590" width="60" height="20" as="geometry" />
        </mxCell>
        <mxCell id="DUjhv8gZkma0vR6sMJoY-87" value="btn_right" style="text;html=1;align=left;verticalAlign=middle;whiteSpace=wrap;rounded=0;" parent="1" vertex="1">
          <mxGeometry x="580" y="640" width="60" height="20" as="geometry" />
        </mxCell>
        <mxCell id="DUjhv8gZkma0vR6sMJoY-94" value="" style="group" parent="1" vertex="1" connectable="0">
          <mxGeometry x="970" y="420" width="100" height="90" as="geometry" />
        </mxCell>
        <mxCell id="DUjhv8gZkma0vR6sMJoY-43" value="&lt;div style=&quot;line-height: 80%;&quot;&gt;&lt;div&gt;&lt;b&gt;&lt;br&gt;&lt;/b&gt;&lt;/div&gt;&lt;b&gt;UART TX&lt;/b&gt;&lt;/div&gt;" style="whiteSpace=wrap;html=1;shadow=1;fontSize=18;fillColor=#f5f5f5;strokeColor=#666666;" parent="DUjhv8gZkma0vR6sMJoY-94" vertex="1">
          <mxGeometry y="20" width="90" height="70" as="geometry" />
        </mxCell>
        <mxCell id="DUjhv8gZkma0vR6sMJoY-47" value="CLK" style="text;html=1;align=right;verticalAlign=middle;whiteSpace=wrap;rounded=0;" parent="DUjhv8gZkma0vR6sMJoY-94" vertex="1">
          <mxGeometry x="60" width="40" height="20" as="geometry" />
        </mxCell>
        <mxCell id="DUjhv8gZkma0vR6sMJoY-48" value="" style="endArrow=classic;html=1;rounded=0;entryX=0;entryY=0.5;entryDx=0;entryDy=0;" parent="DUjhv8gZkma0vR6sMJoY-94" edge="1">
          <mxGeometry width="50" height="50" relative="1" as="geometry">
            <mxPoint x="70" as="sourcePoint" />
            <mxPoint x="70" y="20" as="targetPoint" />
          </mxGeometry>
        </mxCell>
        <mxCell id="DUjhv8gZkma0vR6sMJoY-49" value="" style="triangle;whiteSpace=wrap;html=1;fillColor=#F5F5F5;fontColor=#333333;strokeColor=#000000;rotation=90;" parent="DUjhv8gZkma0vR6sMJoY-94" vertex="1">
          <mxGeometry x="65" y="15" width="10" height="20" as="geometry" />
        </mxCell>
        <mxCell id="DUjhv8gZkma0vR6sMJoY-50" value="RST" style="text;html=1;align=center;verticalAlign=middle;whiteSpace=wrap;rounded=0;" parent="DUjhv8gZkma0vR6sMJoY-94" vertex="1">
          <mxGeometry x="20" width="40" height="20" as="geometry" />
        </mxCell>
        <mxCell id="DUjhv8gZkma0vR6sMJoY-51" value="" style="endArrow=classic;html=1;rounded=0;entryX=0;entryY=0.5;entryDx=0;entryDy=0;" parent="DUjhv8gZkma0vR6sMJoY-94" edge="1">
          <mxGeometry width="50" height="50" relative="1" as="geometry">
            <mxPoint x="55" as="sourcePoint" />
            <mxPoint x="55" y="20" as="targetPoint" />
          </mxGeometry>
        </mxCell>
        <mxCell id="DUjhv8gZkma0vR6sMJoY-62" value="tx_start" style="text;html=1;align=left;verticalAlign=middle;whiteSpace=wrap;rounded=0;" parent="DUjhv8gZkma0vR6sMJoY-94" vertex="1">
          <mxGeometry y="20" width="40" height="20" as="geometry" />
        </mxCell>
        <mxCell id="DUjhv8gZkma0vR6sMJoY-63" value="tx_data" style="text;html=1;align=left;verticalAlign=middle;whiteSpace=wrap;rounded=0;" parent="DUjhv8gZkma0vR6sMJoY-94" vertex="1">
          <mxGeometry y="40" width="40" height="20" as="geometry" />
        </mxCell>
        <mxCell id="DUjhv8gZkma0vR6sMJoY-64" value="tx" style="text;html=1;align=right;verticalAlign=middle;whiteSpace=wrap;rounded=0;" parent="DUjhv8gZkma0vR6sMJoY-94" vertex="1">
          <mxGeometry x="50" y="30" width="40" height="20" as="geometry" />
        </mxCell>
        <mxCell id="DUjhv8gZkma0vR6sMJoY-65" value="tx_busy" style="text;html=1;align=right;verticalAlign=middle;whiteSpace=wrap;rounded=0;" parent="DUjhv8gZkma0vR6sMJoY-94" vertex="1">
          <mxGeometry x="50" y="70" width="40" height="20" as="geometry" />
        </mxCell>
        <mxCell id="DUjhv8gZkma0vR6sMJoY-95" value="" style="group" parent="1" vertex="1" connectable="0">
          <mxGeometry x="760" y="630" width="170" height="190" as="geometry" />
        </mxCell>
        <mxCell id="DUjhv8gZkma0vR6sMJoY-88" value="&lt;div style=&quot;line-height: 100%;&quot;&gt;&lt;b style=&quot;text-align: right; background-color: transparent; color: light-dark(rgb(0, 0, 0), rgb(255, 255, 255));&quot;&gt;&amp;nbsp; &amp;nbsp; &amp;nbsp; &amp;nbsp; &amp;nbsp;DebugUART&lt;/b&gt;&lt;/div&gt;&lt;div style=&quot;line-height: 100%;&quot;&gt;&lt;div style=&quot;text-align: right;&quot;&gt;&lt;b&gt;Controller&lt;/b&gt;&lt;/div&gt;&lt;/div&gt;" style="whiteSpace=wrap;html=1;shadow=1;fontSize=18;fillColor=#f5f5f5;strokeColor=#666666;" parent="DUjhv8gZkma0vR6sMJoY-95" vertex="1">
          <mxGeometry width="160" height="190" as="geometry" />
        </mxCell>
        <mxCell id="DUjhv8gZkma0vR6sMJoY-103" value="dbg_pc" style="text;html=1;align=left;verticalAlign=middle;whiteSpace=wrap;rounded=0;" parent="DUjhv8gZkma0vR6sMJoY-95" vertex="1">
          <mxGeometry width="60" height="10" as="geometry" />
        </mxCell>
        <mxCell id="DUjhv8gZkma0vR6sMJoY-104" value="dbg_reg_data" style="text;html=1;align=left;verticalAlign=middle;whiteSpace=wrap;rounded=0;" parent="DUjhv8gZkma0vR6sMJoY-95" vertex="1">
          <mxGeometry y="20" width="90" height="10" as="geometry" />
        </mxCell>
        <mxCell id="DUjhv8gZkma0vR6sMJoY-105" value="dbg_instruction" style="text;html=1;align=left;verticalAlign=middle;whiteSpace=wrap;rounded=0;" parent="DUjhv8gZkma0vR6sMJoY-95" vertex="1">
          <mxGeometry y="30" width="90" height="10" as="geometry" />
        </mxCell>
        <mxCell id="DUjhv8gZkma0vR6sMJoY-108" value="dbg_reg_addr" style="text;html=1;align=left;verticalAlign=middle;whiteSpace=wrap;rounded=0;" parent="DUjhv8gZkma0vR6sMJoY-95" vertex="1">
          <mxGeometry y="10" width="100" height="10" as="geometry" />
        </mxCell>
        <mxCell id="DUjhv8gZkma0vR6sMJoY-106" value="dbg_mcycle" style="text;html=1;align=left;verticalAlign=middle;whiteSpace=wrap;rounded=0;" parent="DUjhv8gZkma0vR6sMJoY-95" vertex="1">
          <mxGeometry y="45" width="90" height="10" as="geometry" />
        </mxCell>
        <mxCell id="DUjhv8gZkma0vR6sMJoY-107" value="dbg_minstret" style="text;html=1;align=left;verticalAlign=middle;whiteSpace=wrap;rounded=0;" parent="DUjhv8gZkma0vR6sMJoY-95" vertex="1">
          <mxGeometry y="50" width="80" height="20" as="geometry" />
        </mxCell>
        <mxCell id="DUjhv8gZkma0vR6sMJoY-109" value="tx_start" style="text;html=1;align=right;verticalAlign=middle;whiteSpace=wrap;rounded=0;" parent="DUjhv8gZkma0vR6sMJoY-95" vertex="1">
          <mxGeometry x="120" width="40" height="20" as="geometry" />
        </mxCell>
        <mxCell id="DUjhv8gZkma0vR6sMJoY-110" value="tx_data" style="text;html=1;align=right;verticalAlign=middle;whiteSpace=wrap;rounded=0;" parent="DUjhv8gZkma0vR6sMJoY-95" vertex="1">
          <mxGeometry x="120" y="30" width="40" height="20" as="geometry" />
        </mxCell>
        <mxCell id="DUjhv8gZkma0vR6sMJoY-98" value="result_trigger" style="text;html=1;align=left;verticalAlign=middle;whiteSpace=wrap;rounded=0;" parent="DUjhv8gZkma0vR6sMJoY-95" vertex="1">
          <mxGeometry y="110" width="60" height="20" as="geometry" />
        </mxCell>
        <mxCell id="DUjhv8gZkma0vR6sMJoY-97" value="reg_trigger" style="text;html=1;align=left;verticalAlign=middle;whiteSpace=wrap;rounded=0;" parent="DUjhv8gZkma0vR6sMJoY-95" vertex="1">
          <mxGeometry y="100" width="60" height="10" as="geometry" />
        </mxCell>
        <mxCell id="DUjhv8gZkma0vR6sMJoY-96" value="pc_inst_trigger" style="text;html=1;align=left;verticalAlign=middle;whiteSpace=wrap;rounded=0;" parent="DUjhv8gZkma0vR6sMJoY-95" vertex="1">
          <mxGeometry y="130" width="80" height="10" as="geometry" />
        </mxCell>
        <mxCell id="DUjhv8gZkma0vR6sMJoY-91" value="" style="triangle;whiteSpace=wrap;html=1;fillColor=#F5F5F5;fontColor=#333333;strokeColor=#000000;rotation=0;" parent="DUjhv8gZkma0vR6sMJoY-95" vertex="1">
          <mxGeometry y="70" width="10" height="20" as="geometry" />
        </mxCell>
        <mxCell id="DUjhv8gZkma0vR6sMJoY-89" value="CLK" style="text;html=1;align=center;verticalAlign=middle;whiteSpace=wrap;rounded=0;" parent="DUjhv8gZkma0vR6sMJoY-95" vertex="1">
          <mxGeometry x="10" y="70" width="30" height="20" as="geometry" />
        </mxCell>
        <mxCell id="DUjhv8gZkma0vR6sMJoY-92" value="RST" style="text;html=1;align=left;verticalAlign=middle;whiteSpace=wrap;rounded=0;" parent="DUjhv8gZkma0vR6sMJoY-95" vertex="1">
          <mxGeometry y="85" width="40" height="20" as="geometry" />
        </mxCell>
        <mxCell id="DUjhv8gZkma0vR6sMJoY-111" value="tx_busy" style="text;html=1;align=left;verticalAlign=middle;whiteSpace=wrap;rounded=0;" parent="DUjhv8gZkma0vR6sMJoY-95" vertex="1">
          <mxGeometry y="170" width="40" height="20" as="geometry" />
        </mxCell>
        <mxCell id="DUjhv8gZkma0vR6sMJoY-173" value="final_cycles" style="text;html=1;align=left;verticalAlign=middle;whiteSpace=wrap;rounded=0;" parent="DUjhv8gZkma0vR6sMJoY-95" vertex="1">
          <mxGeometry y="150" width="80" height="10" as="geometry" />
        </mxCell>
        <mxCell id="DUjhv8gZkma0vR6sMJoY-174" value="final_instructions" style="text;html=1;align=left;verticalAlign=middle;whiteSpace=wrap;rounded=0;" parent="DUjhv8gZkma0vR6sMJoY-95" vertex="1">
          <mxGeometry y="160" width="80" height="10" as="geometry" />
        </mxCell>
        <mxCell id="DUjhv8gZkma0vR6sMJoY-115" style="edgeStyle=orthogonalEdgeStyle;rounded=0;orthogonalLoop=1;jettySize=auto;html=1;entryX=0;entryY=0.5;entryDx=0;entryDy=0;exitX=1;exitY=0.5;exitDx=0;exitDy=0;" parent="1" source="DUjhv8gZkma0vR6sMJoY-42" target="DUjhv8gZkma0vR6sMJoY-107" edge="1">
          <mxGeometry relative="1" as="geometry">
            <Array as="points">
              <mxPoint x="880" y="550" />
              <mxPoint x="880" y="570" />
              <mxPoint x="690" y="570" />
              <mxPoint x="690" y="690" />
            </Array>
          </mxGeometry>
        </mxCell>
        <mxCell id="DUjhv8gZkma0vR6sMJoY-116" style="edgeStyle=orthogonalEdgeStyle;rounded=0;orthogonalLoop=1;jettySize=auto;html=1;entryX=0;entryY=0.5;entryDx=0;entryDy=0;exitX=1;exitY=0.5;exitDx=0;exitDy=0;" parent="1" source="DUjhv8gZkma0vR6sMJoY-41" target="DUjhv8gZkma0vR6sMJoY-106" edge="1">
          <mxGeometry relative="1" as="geometry">
            <Array as="points">
              <mxPoint x="890" y="540" />
              <mxPoint x="890" y="580" />
              <mxPoint x="700" y="580" />
              <mxPoint x="700" y="680" />
              <mxPoint x="760" y="680" />
            </Array>
          </mxGeometry>
        </mxCell>
        <mxCell id="DUjhv8gZkma0vR6sMJoY-117" style="edgeStyle=orthogonalEdgeStyle;rounded=0;orthogonalLoop=1;jettySize=auto;html=1;entryX=0;entryY=0.5;entryDx=0;entryDy=0;exitX=1;exitY=0.5;exitDx=0;exitDy=0;" parent="1" source="DUjhv8gZkma0vR6sMJoY-37" target="DUjhv8gZkma0vR6sMJoY-105" edge="1">
          <mxGeometry relative="1" as="geometry">
            <Array as="points">
              <mxPoint x="900" y="520" />
              <mxPoint x="900" y="590" />
              <mxPoint x="710" y="590" />
              <mxPoint x="710" y="665" />
            </Array>
          </mxGeometry>
        </mxCell>
        <mxCell id="DUjhv8gZkma0vR6sMJoY-118" style="edgeStyle=orthogonalEdgeStyle;rounded=0;orthogonalLoop=1;jettySize=auto;html=1;entryX=0;entryY=0.5;entryDx=0;entryDy=0;exitX=1;exitY=0.5;exitDx=0;exitDy=0;" parent="1" source="DUjhv8gZkma0vR6sMJoY-39" target="DUjhv8gZkma0vR6sMJoY-104" edge="1">
          <mxGeometry relative="1" as="geometry">
            <Array as="points">
              <mxPoint x="910" y="460" />
              <mxPoint x="910" y="600" />
              <mxPoint x="720" y="600" />
              <mxPoint x="720" y="655" />
            </Array>
          </mxGeometry>
        </mxCell>
        <mxCell id="DUjhv8gZkma0vR6sMJoY-119" value="" style="endArrow=classic;html=1;rounded=0;" parent="1" edge="1">
          <mxGeometry width="50" height="50" relative="1" as="geometry">
            <mxPoint x="740" y="705" as="sourcePoint" />
            <mxPoint x="760" y="705" as="targetPoint" />
          </mxGeometry>
        </mxCell>
        <mxCell id="DUjhv8gZkma0vR6sMJoY-120" value="" style="endArrow=classic;html=1;rounded=0;" parent="1" edge="1">
          <mxGeometry width="50" height="50" relative="1" as="geometry">
            <mxPoint x="740" y="725" as="sourcePoint" />
            <mxPoint x="760" y="725" as="targetPoint" />
          </mxGeometry>
        </mxCell>
        <mxCell id="DUjhv8gZkma0vR6sMJoY-121" style="edgeStyle=orthogonalEdgeStyle;rounded=0;orthogonalLoop=1;jettySize=auto;html=1;entryX=0;entryY=0.5;entryDx=0;entryDy=0;exitX=1;exitY=0.5;exitDx=0;exitDy=0;" parent="1" source="DUjhv8gZkma0vR6sMJoY-38" target="DUjhv8gZkma0vR6sMJoY-108" edge="1">
          <mxGeometry relative="1" as="geometry">
            <Array as="points">
              <mxPoint x="920" y="450" />
              <mxPoint x="920" y="610" />
              <mxPoint x="730" y="610" />
              <mxPoint x="730" y="645" />
            </Array>
          </mxGeometry>
        </mxCell>
        <mxCell id="DUjhv8gZkma0vR6sMJoY-122" style="edgeStyle=orthogonalEdgeStyle;rounded=0;orthogonalLoop=1;jettySize=auto;html=1;entryX=0;entryY=0.5;entryDx=0;entryDy=0;exitX=1;exitY=0.5;exitDx=0;exitDy=0;" parent="1" source="DUjhv8gZkma0vR6sMJoY-36" target="DUjhv8gZkma0vR6sMJoY-103" edge="1">
          <mxGeometry relative="1" as="geometry">
            <Array as="points">
              <mxPoint x="930" y="430" />
              <mxPoint x="930" y="620" />
              <mxPoint x="740" y="620" />
              <mxPoint x="740" y="635" />
            </Array>
          </mxGeometry>
        </mxCell>
        <mxCell id="DUjhv8gZkma0vR6sMJoY-123" style="edgeStyle=orthogonalEdgeStyle;rounded=0;orthogonalLoop=1;jettySize=auto;html=1;entryX=0;entryY=0.5;entryDx=0;entryDy=0;" parent="1" source="DUjhv8gZkma0vR6sMJoY-109" target="DUjhv8gZkma0vR6sMJoY-62" edge="1">
          <mxGeometry relative="1" as="geometry">
            <Array as="points">
              <mxPoint x="940" y="640" />
              <mxPoint x="940" y="450" />
            </Array>
          </mxGeometry>
        </mxCell>
        <mxCell id="DUjhv8gZkma0vR6sMJoY-124" style="edgeStyle=orthogonalEdgeStyle;rounded=0;orthogonalLoop=1;jettySize=auto;html=1;entryX=0;entryY=0.5;entryDx=0;entryDy=0;" parent="1" source="DUjhv8gZkma0vR6sMJoY-110" target="DUjhv8gZkma0vR6sMJoY-63" edge="1">
          <mxGeometry relative="1" as="geometry">
            <Array as="points">
              <mxPoint x="950" y="670" />
              <mxPoint x="950" y="470" />
            </Array>
          </mxGeometry>
        </mxCell>
        <mxCell id="DUjhv8gZkma0vR6sMJoY-125" style="edgeStyle=orthogonalEdgeStyle;rounded=0;orthogonalLoop=1;jettySize=auto;html=1;entryX=0;entryY=0.5;entryDx=0;entryDy=0;exitX=1;exitY=0.5;exitDx=0;exitDy=0;" parent="1" source="DUjhv8gZkma0vR6sMJoY-65" target="DUjhv8gZkma0vR6sMJoY-111" edge="1">
          <mxGeometry relative="1" as="geometry">
            <Array as="points">
              <mxPoint x="1070" y="500" />
              <mxPoint x="1070" y="520" />
              <mxPoint x="960" y="520" />
              <mxPoint x="960" y="680" />
              <mxPoint x="930" y="680" />
              <mxPoint x="930" y="830" />
              <mxPoint x="740" y="830" />
              <mxPoint x="740" y="810" />
            </Array>
          </mxGeometry>
        </mxCell>
        <mxCell id="DUjhv8gZkma0vR6sMJoY-131" value="" style="endArrow=classic;html=1;rounded=0;dashed=1;" parent="1" edge="1">
          <mxGeometry width="50" height="50" relative="1" as="geometry">
            <mxPoint x="680" y="475" as="sourcePoint" />
            <mxPoint x="700" y="475" as="targetPoint" />
          </mxGeometry>
        </mxCell>
        <mxCell id="DUjhv8gZkma0vR6sMJoY-132" value="reset_n" style="text;html=1;align=left;verticalAlign=middle;whiteSpace=wrap;rounded=0;strokeColor=default;dashed=1;" parent="1" vertex="1">
          <mxGeometry x="550" y="780" width="40" height="20" as="geometry" />
        </mxCell>
        <mxCell id="DUjhv8gZkma0vR6sMJoY-134" value="" style="endArrow=classic;html=1;rounded=0;dashed=1;" parent="1" edge="1">
          <mxGeometry width="50" height="50" relative="1" as="geometry">
            <mxPoint x="593" y="789.88" as="sourcePoint" />
            <mxPoint x="613" y="789.88" as="targetPoint" />
          </mxGeometry>
        </mxCell>
        <mxCell id="DUjhv8gZkma0vR6sMJoY-138" value="" style="endArrow=classic;html=1;rounded=0;dashed=1;" parent="1" edge="1">
          <mxGeometry width="50" height="50" relative="1" as="geometry">
            <mxPoint x="870" y="504.88" as="sourcePoint" />
            <mxPoint x="890" y="504.88" as="targetPoint" />
          </mxGeometry>
        </mxCell>
        <mxCell id="DUjhv8gZkma0vR6sMJoY-148" style="edgeStyle=orthogonalEdgeStyle;rounded=0;orthogonalLoop=1;jettySize=auto;html=1;entryX=0;entryY=0.5;entryDx=0;entryDy=0;jumpStyle=arc;" parent="1" source="DUjhv8gZkma0vR6sMJoY-147" target="DUjhv8gZkma0vR6sMJoY-146" edge="1">
          <mxGeometry relative="1" as="geometry">
            <Array as="points">
              <mxPoint x="970" y="620" />
              <mxPoint x="970" y="790" />
            </Array>
          </mxGeometry>
        </mxCell>
        <mxCell id="DUjhv8gZkma0vR6sMJoY-147" value="" style="shape=waypoint;sketch=0;size=6;pointerEvents=1;points=[];fillColor=none;resizable=0;rotatable=0;perimeter=centerPerimeter;snapToPoint=1;" parent="1" vertex="1">
          <mxGeometry x="920" y="610" width="20" height="20" as="geometry" />
        </mxCell>
        <mxCell id="DUjhv8gZkma0vR6sMJoY-149" style="edgeStyle=orthogonalEdgeStyle;rounded=0;orthogonalLoop=1;jettySize=auto;html=1;entryX=0;entryY=0.5;entryDx=0;entryDy=0;exitX=1;exitY=0.5;exitDx=0;exitDy=0;" parent="1" source="DUjhv8gZkma0vR6sMJoY-58" target="DUjhv8gZkma0vR6sMJoY-145" edge="1">
          <mxGeometry relative="1" as="geometry">
            <Array as="points">
              <mxPoint x="690" y="700" />
              <mxPoint x="690" y="860" />
              <mxPoint x="940" y="860" />
              <mxPoint x="940" y="800" />
            </Array>
          </mxGeometry>
        </mxCell>
        <mxCell id="DUjhv8gZkma0vR6sMJoY-100" style="edgeStyle=orthogonalEdgeStyle;rounded=0;orthogonalLoop=1;jettySize=auto;html=1;entryX=0;entryY=0.5;entryDx=0;entryDy=0;exitX=1;exitY=0.5;exitDx=0;exitDy=0;jumpStyle=arc;" parent="1" source="DUjhv8gZkma0vR6sMJoY-59" target="DUjhv8gZkma0vR6sMJoY-96" edge="1">
          <mxGeometry relative="1" as="geometry">
            <Array as="points">
              <mxPoint x="680" y="750" />
              <mxPoint x="700" y="750" />
              <mxPoint x="700" y="765" />
            </Array>
          </mxGeometry>
        </mxCell>
        <mxCell id="DUjhv8gZkma0vR6sMJoY-101" style="edgeStyle=orthogonalEdgeStyle;rounded=0;orthogonalLoop=1;jettySize=auto;html=1;entryX=0;entryY=0.5;entryDx=0;entryDy=0;exitX=1;exitY=0.5;exitDx=0;exitDy=0;jumpStyle=arc;" parent="1" source="DUjhv8gZkma0vR6sMJoY-60" target="DUjhv8gZkma0vR6sMJoY-97" edge="1">
          <mxGeometry relative="1" as="geometry">
            <Array as="points">
              <mxPoint x="720" y="720" />
              <mxPoint x="720" y="735" />
            </Array>
          </mxGeometry>
        </mxCell>
        <mxCell id="DUjhv8gZkma0vR6sMJoY-102" style="edgeStyle=orthogonalEdgeStyle;rounded=0;orthogonalLoop=1;jettySize=auto;html=1;entryX=0;entryY=0.5;entryDx=0;entryDy=0;exitX=1;exitY=0.5;exitDx=0;exitDy=0;jumpStyle=arc;" parent="1" source="DUjhv8gZkma0vR6sMJoY-61" target="DUjhv8gZkma0vR6sMJoY-98" edge="1">
          <mxGeometry relative="1" as="geometry">
            <Array as="points">
              <mxPoint x="710" y="735" />
              <mxPoint x="710" y="750" />
            </Array>
          </mxGeometry>
        </mxCell>
        <mxCell id="DUjhv8gZkma0vR6sMJoY-153" style="edgeStyle=orthogonalEdgeStyle;rounded=0;orthogonalLoop=1;jettySize=auto;html=1;entryX=0;entryY=0.5;entryDx=0;entryDy=0;jumpStyle=arc;" parent="1" source="DUjhv8gZkma0vR6sMJoY-152" target="DUjhv8gZkma0vR6sMJoY-151" edge="1">
          <mxGeometry relative="1" as="geometry">
            <Array as="points">
              <mxPoint x="1000" y="570" />
              <mxPoint x="1000" y="680" />
            </Array>
          </mxGeometry>
        </mxCell>
        <mxCell id="DUjhv8gZkma0vR6sMJoY-152" value="" style="shape=waypoint;sketch=0;size=6;pointerEvents=1;points=[];fillColor=none;resizable=0;rotatable=0;perimeter=centerPerimeter;snapToPoint=1;" parent="1" vertex="1">
          <mxGeometry x="870" y="560" width="20" height="20" as="geometry" />
        </mxCell>
        <mxCell id="DUjhv8gZkma0vR6sMJoY-156" style="edgeStyle=orthogonalEdgeStyle;rounded=0;orthogonalLoop=1;jettySize=auto;html=1;entryX=0;entryY=0.5;entryDx=0;entryDy=0;jumpStyle=arc;" parent="1" source="DUjhv8gZkma0vR6sMJoY-155" target="DUjhv8gZkma0vR6sMJoY-150" edge="1">
          <mxGeometry relative="1" as="geometry">
            <Array as="points">
              <mxPoint x="990" y="580" />
              <mxPoint x="990" y="695" />
            </Array>
          </mxGeometry>
        </mxCell>
        <mxCell id="DUjhv8gZkma0vR6sMJoY-155" value="" style="shape=waypoint;sketch=0;size=6;pointerEvents=1;points=[];fillColor=none;resizable=0;rotatable=0;perimeter=centerPerimeter;snapToPoint=1;" parent="1" vertex="1">
          <mxGeometry x="880" y="570" width="20" height="20" as="geometry" />
        </mxCell>
        <mxCell id="DUjhv8gZkma0vR6sMJoY-159" style="edgeStyle=orthogonalEdgeStyle;rounded=0;orthogonalLoop=1;jettySize=auto;html=1;entryX=0;entryY=0.5;entryDx=0;entryDy=0;jumpStyle=arc;" parent="1" source="DUjhv8gZkma0vR6sMJoY-158" target="DUjhv8gZkma0vR6sMJoY-157" edge="1">
          <mxGeometry relative="1" as="geometry">
            <Array as="points">
              <mxPoint x="980" y="590" />
              <mxPoint x="980" y="780" />
            </Array>
          </mxGeometry>
        </mxCell>
        <mxCell id="DUjhv8gZkma0vR6sMJoY-158" value="" style="shape=waypoint;sketch=0;size=6;pointerEvents=1;points=[];fillColor=none;resizable=0;rotatable=0;perimeter=centerPerimeter;snapToPoint=1;" parent="1" vertex="1">
          <mxGeometry x="890" y="580" width="20" height="20" as="geometry" />
        </mxCell>
        <mxCell id="DUjhv8gZkma0vR6sMJoY-165" style="edgeStyle=orthogonalEdgeStyle;rounded=0;orthogonalLoop=1;jettySize=auto;html=1;" parent="1" source="DUjhv8gZkma0vR6sMJoY-161" edge="1">
          <mxGeometry relative="1" as="geometry">
            <mxPoint x="1180" y="590" as="targetPoint" />
            <Array as="points">
              <mxPoint x="1150" y="650" />
              <mxPoint x="1150" y="590" />
            </Array>
          </mxGeometry>
        </mxCell>
        <mxCell id="DUjhv8gZkma0vR6sMJoY-166" style="edgeStyle=orthogonalEdgeStyle;rounded=0;orthogonalLoop=1;jettySize=auto;html=1;exitX=1;exitY=0.5;exitDx=0;exitDy=0;" parent="1" source="DUjhv8gZkma0vR6sMJoY-162" edge="1">
          <mxGeometry relative="1" as="geometry">
            <mxPoint x="1180" y="590" as="targetPoint" />
            <Array as="points">
              <mxPoint x="1160" y="665" />
              <mxPoint x="1160" y="590" />
            </Array>
          </mxGeometry>
        </mxCell>
        <mxCell id="DUjhv8gZkma0vR6sMJoY-171" value="" style="group" parent="1" vertex="1" connectable="0">
          <mxGeometry x="1030" y="610" width="100" height="200" as="geometry" />
        </mxCell>
        <mxCell id="DUjhv8gZkma0vR6sMJoY-140" value="CLK" style="text;html=1;align=right;verticalAlign=middle;whiteSpace=wrap;rounded=0;" parent="DUjhv8gZkma0vR6sMJoY-171" vertex="1">
          <mxGeometry x="60" width="40" height="20" as="geometry" />
        </mxCell>
        <mxCell id="DUjhv8gZkma0vR6sMJoY-141" value="" style="endArrow=classic;html=1;rounded=0;entryX=0;entryY=0.5;entryDx=0;entryDy=0;" parent="DUjhv8gZkma0vR6sMJoY-171" edge="1">
          <mxGeometry width="50" height="50" relative="1" as="geometry">
            <mxPoint x="67" as="sourcePoint" />
            <mxPoint x="67" y="20" as="targetPoint" />
          </mxGeometry>
        </mxCell>
        <mxCell id="DUjhv8gZkma0vR6sMJoY-142" value="" style="triangle;whiteSpace=wrap;html=1;fillColor=#F5F5F5;fontColor=#333333;strokeColor=#000000;rotation=90;" parent="DUjhv8gZkma0vR6sMJoY-171" vertex="1">
          <mxGeometry x="60" y="20" width="10" height="20" as="geometry" />
        </mxCell>
        <mxCell id="DUjhv8gZkma0vR6sMJoY-143" value="RST" style="text;html=1;align=center;verticalAlign=middle;whiteSpace=wrap;rounded=0;" parent="DUjhv8gZkma0vR6sMJoY-171" vertex="1">
          <mxGeometry x="20" width="40" height="20" as="geometry" />
        </mxCell>
        <mxCell id="DUjhv8gZkma0vR6sMJoY-144" value="" style="endArrow=classic;html=1;rounded=0;entryX=0;entryY=0.5;entryDx=0;entryDy=0;" parent="DUjhv8gZkma0vR6sMJoY-171" edge="1">
          <mxGeometry width="50" height="50" relative="1" as="geometry">
            <mxPoint x="52" as="sourcePoint" />
            <mxPoint x="52" y="20" as="targetPoint" />
          </mxGeometry>
        </mxCell>
        <mxCell id="DUjhv8gZkma0vR6sMJoY-139" value="&lt;div style=&quot;line-height: 90%;&quot;&gt;&lt;div&gt;&lt;b&gt;&lt;font style=&quot;font-size: 17px;&quot;&gt;Benchmark&lt;/font&gt;&lt;/b&gt;&lt;/div&gt;&lt;div&gt;&lt;b&gt;&lt;font style=&quot;font-size: 17px;&quot;&gt;Controller&lt;/font&gt;&lt;/b&gt;&lt;/div&gt;&lt;/div&gt;" style="whiteSpace=wrap;html=1;shadow=1;fontSize=18;fillColor=#f5f5f5;strokeColor=#666666;" parent="DUjhv8gZkma0vR6sMJoY-171" vertex="1">
          <mxGeometry y="20" width="100" height="180" as="geometry" />
        </mxCell>
        <mxCell id="DUjhv8gZkma0vR6sMJoY-145" value="bench_start" style="text;html=1;align=left;verticalAlign=middle;whiteSpace=wrap;rounded=0;" parent="DUjhv8gZkma0vR6sMJoY-171" vertex="1">
          <mxGeometry y="180" width="60" height="20" as="geometry" />
        </mxCell>
        <mxCell id="DUjhv8gZkma0vR6sMJoY-146" value="pc" style="text;html=1;align=left;verticalAlign=middle;whiteSpace=wrap;rounded=0;" parent="DUjhv8gZkma0vR6sMJoY-171" vertex="1">
          <mxGeometry y="170" width="60" height="20" as="geometry" />
        </mxCell>
        <mxCell id="DUjhv8gZkma0vR6sMJoY-150" value="mcycle" style="text;html=1;align=left;verticalAlign=middle;whiteSpace=wrap;rounded=0;" parent="DUjhv8gZkma0vR6sMJoY-171" vertex="1">
          <mxGeometry y="75" width="90" height="20" as="geometry" />
        </mxCell>
        <mxCell id="DUjhv8gZkma0vR6sMJoY-151" value="minstret" style="text;html=1;align=left;verticalAlign=middle;whiteSpace=wrap;rounded=0;" parent="DUjhv8gZkma0vR6sMJoY-171" vertex="1">
          <mxGeometry y="60" width="80" height="20" as="geometry" />
        </mxCell>
        <mxCell id="DUjhv8gZkma0vR6sMJoY-157" value="instruction" style="text;html=1;align=left;verticalAlign=middle;whiteSpace=wrap;rounded=0;" parent="DUjhv8gZkma0vR6sMJoY-171" vertex="1">
          <mxGeometry y="160" width="90" height="20" as="geometry" />
        </mxCell>
        <mxCell id="DUjhv8gZkma0vR6sMJoY-161" value="bench_running" style="text;html=1;align=right;verticalAlign=middle;whiteSpace=wrap;rounded=0;" parent="DUjhv8gZkma0vR6sMJoY-171" vertex="1">
          <mxGeometry x="20" y="30" width="80" height="20" as="geometry" />
        </mxCell>
        <mxCell id="DUjhv8gZkma0vR6sMJoY-162" value="bench_done" style="text;html=1;align=right;verticalAlign=middle;whiteSpace=wrap;rounded=0;" parent="DUjhv8gZkma0vR6sMJoY-171" vertex="1">
          <mxGeometry x="20" y="45" width="80" height="20" as="geometry" />
        </mxCell>
        <mxCell id="DUjhv8gZkma0vR6sMJoY-163" value="final_cycles" style="text;html=1;align=right;verticalAlign=middle;whiteSpace=wrap;rounded=0;" parent="DUjhv8gZkma0vR6sMJoY-171" vertex="1">
          <mxGeometry x="20" y="130" width="80" height="20" as="geometry" />
        </mxCell>
        <mxCell id="DUjhv8gZkma0vR6sMJoY-164" value="final_instructions" style="text;html=1;align=right;verticalAlign=middle;whiteSpace=wrap;rounded=0;" parent="DUjhv8gZkma0vR6sMJoY-171" vertex="1">
          <mxGeometry x="20" y="140" width="80" height="20" as="geometry" />
        </mxCell>
        <mxCell id="DUjhv8gZkma0vR6sMJoY-167" value="clk_en" style="text;html=1;align=left;verticalAlign=middle;whiteSpace=wrap;rounded=0;" parent="DUjhv8gZkma0vR6sMJoY-171" vertex="1">
          <mxGeometry y="20" width="90" height="10" as="geometry" />
        </mxCell>
        <mxCell id="DUjhv8gZkma0vR6sMJoY-172" value="" style="endArrow=classic;html=1;rounded=0;dashed=1;" parent="1" edge="1">
          <mxGeometry width="50" height="50" relative="1" as="geometry">
            <mxPoint x="1013" y="635" as="sourcePoint" />
            <mxPoint x="1033" y="635" as="targetPoint" />
          </mxGeometry>
        </mxCell>
        <mxCell id="DUjhv8gZkma0vR6sMJoY-175" style="edgeStyle=orthogonalEdgeStyle;rounded=0;orthogonalLoop=1;jettySize=auto;html=1;entryX=0;entryY=0.5;entryDx=0;entryDy=0;exitX=1;exitY=0.5;exitDx=0;exitDy=0;jumpStyle=arc;" parent="1" source="DUjhv8gZkma0vR6sMJoY-163" target="DUjhv8gZkma0vR6sMJoY-173" edge="1">
          <mxGeometry relative="1" as="geometry">
            <Array as="points">
              <mxPoint x="1150" y="750" />
              <mxPoint x="1150" y="850" />
              <mxPoint x="720" y="850" />
              <mxPoint x="720" y="785" />
            </Array>
          </mxGeometry>
        </mxCell>
        <mxCell id="DUjhv8gZkma0vR6sMJoY-176" style="edgeStyle=orthogonalEdgeStyle;rounded=0;orthogonalLoop=1;jettySize=auto;html=1;entryX=0;entryY=0.5;entryDx=0;entryDy=0;exitX=1;exitY=0.5;exitDx=0;exitDy=0;jumpStyle=arc;" parent="1" source="DUjhv8gZkma0vR6sMJoY-164" target="DUjhv8gZkma0vR6sMJoY-174" edge="1">
          <mxGeometry relative="1" as="geometry">
            <Array as="points">
              <mxPoint x="1140" y="760" />
              <mxPoint x="1140" y="840" />
              <mxPoint x="730" y="840" />
              <mxPoint x="730" y="795" />
            </Array>
          </mxGeometry>
        </mxCell>
        <mxCell id="DUjhv8gZkma0vR6sMJoY-182" value="&lt;h1 style=&quot;margin-top: 0px;&quot;&gt;46F5SP_SoC&lt;/h1&gt;&lt;span style=&quot;font-size: 11px;&quot;&gt;&lt;font style=&quot;font-size: 14px;&quot;&gt;Final version of milestone; basic_rv32s project.&lt;/font&gt;&lt;/span&gt;&lt;div style=&quot;&quot;&gt;&lt;span style=&quot;font-size: 12px; background-color: transparent; color: light-dark(rgb(0, 0, 0), rgb(255, 255, 255));&quot;&gt;Total debugging &amp;amp; benchmarking system environment&lt;/span&gt;&lt;/div&gt;&lt;div style=&quot;&quot;&gt;&lt;span style=&quot;color: light-dark(rgb(0, 0, 0), rgb(255, 255, 255)); background-color: transparent; font-size: 14px;&quot;&gt;FPGA implemented structure of RV32I46F_5SP core&lt;/span&gt;&lt;span style=&quot;color: light-dark(rgb(0, 0, 0), rgb(255, 255, 255)); background-color: transparent;&quot;&gt;.&lt;/span&gt;&lt;span style=&quot;font-size: 12px; background-color: transparent; color: light-dark(rgb(0, 0, 0), rgb(255, 255, 255));&quot;&gt;&lt;/span&gt;&lt;/div&gt;" style="text;html=1;whiteSpace=wrap;overflow=hidden;rounded=0;align=right;" parent="1" vertex="1">
          <mxGeometry x="1000" y="830" width="400" height="120" as="geometry" />
        </mxCell>
        <mxCell id="DUjhv8gZkma0vR6sMJoY-183" value="&lt;div style=&quot;&quot;&gt;&lt;span style=&quot;font-size: 14px; background-color: transparent;&quot;&gt;23:58&lt;/span&gt;&lt;b style=&quot;font-size: 14px; background-color: transparent;&quot;&gt;&amp;nbsp; &amp;nbsp;강현우&lt;/b&gt;&lt;span style=&quot;font-size: 14px; background-color: transparent;&quot;&gt;, KHWL2025.&lt;/span&gt;&lt;/div&gt;&lt;span style=&quot;&quot;&gt;&lt;div style=&quot;&quot;&gt;&lt;span style=&quot;background-color: transparent;&quot;&gt;2024.12.15(日) ~ 2025.07.02(水)&lt;/span&gt;&lt;/div&gt;&lt;/span&gt;" style="text;html=1;align=right;verticalAlign=middle;whiteSpace=wrap;rounded=0;fontColor=#000000;" parent="1" vertex="1">
          <mxGeometry x="880" y="890" width="180" height="40" as="geometry" />
        </mxCell>
      </root>
    </mxGraphModel>
  </diagram>
</mxfile>
